<?xml version="1.0" encoding="utf-8"?>
<svg version="1.1" id="Ebene_1" x="0px" y="0px" enable-background="new 0 0 566.929 96.834" xmlns="http://www.w3.org/2000/svg">
<path d="M32.8475 31.07C32.8426 30.6906 32.737 30.4352 32.5307 30.3036C32.3244 30.172 32.046 30.0895 31.6957 30.0558C30.5113 29.8618 29.8049 29.4086 29.5765 28.696C29.3481 27.9834 29.2406 27.0691 29.2541 25.9531L28.0563 2.95029C28.0611 2.12152 27.9833 1.42813 27.8259 0.870126C27.6685 0.312182 27.131 0.0221511 26.2135 3.05176e-05C25.3775 0.0221526 24.769 0.266085 24.388 0.731834C24.0069 1.19765 23.6173 1.75274 23.219 2.39712L8.47677 23.1412L5.98901 26.6446C5.50145 27.3918 4.96781 28.0871 4.38808 28.7305C3.80841 29.374 3.06743 29.7696 2.16525 29.9175C1.65179 29.9598 1.16998 30.0597 0.719813 30.2172C0.269697 30.3747 0.0297444 30.7511 0 31.3466C0.012678 31.7038 0.137215 31.9343 0.374293 32.038C0.61137 32.1418 0.885846 32.1879 1.19777 32.1763C2.05105 32.1648 2.91291 32.1187 3.78344 32.038C4.65398 31.9574 5.52734 31.9113 6.40363 31.8998C7.18679 31.9094 7.96999 31.9478 8.75315 32.015C9.53635 32.0822 10.3195 32.1206 11.1027 32.1302C11.4665 32.1351 11.7985 32.0563 12.099 31.894C12.3994 31.7317 12.5587 31.457 12.5769 31.07C12.5274 30.5006 12.1811 30.1694 11.5378 30.0763C10.8946 29.9833 10.2513 29.8569 9.60803 29.6973C8.96473 29.5377 8.61837 29.0733 8.56888 28.3041C8.68405 27.4792 9.2254 26.3056 10.1928 24.7834C11.1603 23.2612 11.8629 22.1914 12.3005 21.5738H21.5144C21.5643 22.5438 21.6142 23.5196 21.6641 24.501C21.714 25.4826 21.7409 26.4583 21.7447 27.4283C21.6941 28.781 21.3398 29.5738 20.6817 29.8066C20.0236 30.0393 19.3656 30.1697 18.7076 30.1975C18.0495 30.2255 17.6952 30.6084 17.6446 31.3466C17.6524 31.6635 17.7521 31.8825 17.944 32.0035C18.136 32.1245 18.374 32.1821 18.6581 32.1763C19.9269 32.1648 21.2015 32.1187 22.4819 32.038C23.7622 31.9574 25.0368 31.9113 26.3056 31.8998C27.1579 31.9074 28.0102 31.9382 28.8625 31.9919C29.7147 32.0457 30.567 32.0765 31.4193 32.0841C31.8013 32.0966 32.1314 32.0371 32.4098 31.9055C32.6881 31.7739 32.834 31.4954 32.8475 31.07V31.07ZM21.4684 19.315H13.7747L21.0998 8.62033L21.4684 19.315Z" fill="white"/>
<path d="M99.5204 1.79784C99.5136 1.52128 99.4234 1.31384 99.2497 1.17552C99.076 1.03726 98.8591 0.968108 98.599 0.968079C98.1863 0.97003 97.7793 0.98924 97.3781 1.0257C96.9769 1.06223 96.57 1.10448 96.1573 1.15247C95.1409 1.26294 94.1101 1.33017 93.0649 1.35415C92.0197 1.37819 90.9774 1.38779 89.9379 1.38296C89.1778 1.37531 88.4177 1.34457 87.6575 1.29076C86.8973 1.23701 86.1372 1.20628 85.377 1.19857C85.0152 1.19954 84.6908 1.30136 84.4039 1.50397C84.1169 1.70664 83.9652 2.00435 83.9489 2.39711C84.0795 3.09245 84.6015 3.41898 85.5153 3.37669C86.429 3.33446 86.9511 3.73014 87.0817 4.56371C87.0768 4.79615 87.05 5.03432 86.9952 5.27823C86.9405 5.52219 86.8772 5.76036 86.8052 5.99274L81.0005 26.1375C80.7788 27.0777 80.5311 27.894 80.2576 28.5865C79.9841 29.2789 79.3564 29.7379 78.3745 29.9636C77.9244 30.0299 77.3965 30.1394 76.7909 30.2921C76.1852 30.4448 75.8532 30.7963 75.7946 31.3466C75.8083 31.6654 75.9309 31.8921 76.1632 32.0265C76.3954 32.161 76.6565 32.2263 76.9464 32.2224C77.9378 32.2071 78.9379 32.1456 79.9466 32.038C80.9554 31.9305 81.967 31.869 82.9814 31.8536C84.066 31.8633 85.1563 31.9017 86.2524 31.9689C87.3485 32.0361 88.4388 32.0745 89.5233 32.0841C89.9696 32.1168 90.4821 32.0976 91.0609 32.0265C91.6396 31.9554 91.9563 31.6366 92.0111 31.07C91.9687 30.4792 91.6698 30.1651 91.1153 30.1275C90.5607 30.09 90.0062 30.0012 89.4516 29.8612C88.8971 29.7212 88.5985 29.2022 88.5558 28.3041C88.5607 27.9334 88.6087 27.5569 88.6998 27.1747C88.791 26.7925 88.8966 26.416 89.0165 26.0453L94.8213 5.80835C95.0343 4.97574 95.2877 4.3707 95.5814 3.99325C95.8751 3.61585 96.451 3.34503 97.3091 3.18078C97.7438 3.12606 98.2103 3.00506 98.7084 2.81776C99.2065 2.63051 99.4772 2.29054 99.5204 1.79784V1.79784Z" fill="white"/>
<path d="M129.827 2.02832C129.762 1.53124 129.258 1.17839 128.314 0.969779C127.37 0.761232 126.377 0.637167 125.336 0.597582C124.295 0.558061 123.596 0.543263 123.239 0.553191C119.39 0.562042 115.361 1.34343 111.154 2.89735C106.946 4.45133 103.358 6.72492 100.389 9.71813C97.42 12.7114 95.869 16.3713 95.7359 20.698C95.7919 23.4453 96.5859 25.7155 98.1179 27.5085C99.6498 29.3015 101.584 30.636 103.919 31.5122C106.255 32.3883 108.656 32.8248 111.123 32.8217C112.626 32.8207 114.135 32.7305 115.649 32.5509C117.164 32.3713 118.65 32.1081 120.107 31.7614C120.662 31.6491 121.14 31.505 121.541 31.3293C121.941 31.1535 122.246 30.7905 122.456 30.2402C122.862 29.0849 123.225 27.9152 123.545 26.731C123.864 25.5469 124.192 24.3656 124.529 23.1872C125.083 21.5101 125.741 20.5261 126.503 20.2353C127.266 19.9445 127.941 19.8073 128.529 19.8238C129.117 19.8403 129.427 19.471 129.459 18.7157C129.445 18.3969 129.322 18.1703 129.09 18.0358C128.858 17.9014 128.597 17.8361 128.307 17.8399C127.156 17.8533 126.003 17.9071 124.846 18.0012C123.689 18.0954 122.524 18.1491 121.35 18.1626C120.245 18.1511 119.139 18.105 118.033 18.0243C116.928 17.9436 115.822 17.8975 114.716 17.886C114.347 17.8754 113.992 17.9427 113.651 18.0877C113.31 18.2327 113.128 18.5189 113.104 18.9462C113.148 19.4673 113.454 19.7569 114.024 19.8153C114.593 19.8736 115.162 19.9857 115.732 20.1516C116.301 20.3175 116.608 20.8223 116.651 21.666C116.6 22.5304 116.334 23.7174 115.851 25.2271C115.368 26.7368 114.975 27.9468 114.67 28.8573C114.491 29.5632 114.251 30.0645 113.951 30.3612C113.65 30.658 113.122 30.802 112.367 30.7934C109.667 30.7348 107.627 29.8609 106.245 28.1716C104.864 26.4823 104.171 24.3291 104.167 21.7121C104.188 19.3035 104.687 16.964 105.664 14.6937C106.641 12.4234 107.969 10.4297 109.649 8.71251C111.308 7.04533 113.356 5.62014 115.793 4.43694C118.23 3.25379 120.635 2.63531 123.009 2.5815C124.137 2.57 124.83 2.78897 125.088 3.23839C125.346 3.68787 125.452 4.43696 125.405 5.48566C125.4 5.76228 125.386 6.03886 125.359 6.31542C125.332 6.59204 125.316 6.86862 125.313 7.14518C125.298 7.60523 125.373 8.02203 125.538 8.39559C125.702 8.7692 126.041 8.96703 126.557 8.9891C127.12 8.9459 127.537 8.66356 127.806 8.14205C128.076 7.62059 128.274 7.11928 128.4 6.63811C128.52 6.28472 128.775 5.5049 129.165 4.29864C129.556 3.09244 129.777 2.33567 129.828 2.02832L129.827 2.02832Z" fill="white"/>
<path d="M156.246 31.07C156.241 30.6906 156.135 30.4352 155.929 30.3036C155.723 30.172 155.444 30.0894 155.094 30.0558C153.91 29.8618 153.203 29.4085 152.975 28.6959C152.746 27.9833 152.639 27.0691 152.652 25.9531L151.454 2.95026C151.459 2.12149 151.382 1.4281 151.224 0.870098C151.067 0.312153 150.529 0.0221206 149.612 0C148.776 0.0221221 148.167 0.266054 147.786 0.731803C147.405 1.19761 147.015 1.75271 146.617 2.39709L131.875 23.1411L129.387 26.6446C128.9 27.3917 128.366 28.0871 127.786 28.7305C127.207 29.374 126.466 29.7696 125.563 29.9175C125.05 29.9598 124.568 30.0597 124.118 30.2172C123.668 30.3747 123.428 30.7511 123.398 31.3466C123.411 31.7038 123.535 31.9343 123.773 32.038C124.01 32.1417 124.284 32.1878 124.596 32.1763C125.449 32.1648 126.311 32.1187 127.182 32.038C128.052 31.9573 128.926 31.9113 129.802 31.8997C130.585 31.9093 131.368 31.9477 132.151 32.015C132.935 32.0822 133.718 32.1206 134.501 32.1302C134.865 32.1351 135.197 32.0563 135.497 31.894C135.798 31.7317 135.957 31.457 135.975 31.07C135.926 30.5006 135.579 30.1694 134.936 30.0763C134.293 29.9833 133.65 29.8569 133.006 29.6973C132.363 29.5376 132.017 29.0732 131.967 28.3041C132.082 27.4791 132.624 26.3056 133.591 24.7834C134.559 23.2612 135.261 22.1913 135.699 21.5738H144.913C144.962 22.5438 145.012 23.5195 145.062 24.501C145.112 25.4825 145.139 26.4583 145.143 27.4282C145.092 28.781 144.738 29.5738 144.08 29.8065C143.422 30.0393 142.764 30.1696 142.106 30.1975C141.448 30.2254 141.093 30.6084 141.043 31.3466C141.051 31.6635 141.15 31.8824 141.342 32.0035C141.534 32.1245 141.772 32.1821 142.056 32.1763C143.325 32.1648 144.6 32.1187 145.88 32.038C147.16 31.9573 148.435 31.9113 149.704 31.8997C150.556 31.9074 151.408 31.9381 152.261 31.9919C153.113 32.0457 153.965 32.0764 154.818 32.0841C155.199 32.0966 155.53 32.0371 155.808 31.9055C156.086 31.7739 156.232 31.4954 156.246 31.07V31.07ZM144.867 19.315H137.173L144.498 8.6203L144.867 19.315Z" fill="white"/>
<path d="M79.9955 1.98222C79.9897 1.68549 79.8976 1.47229 79.7191 1.34261C79.5405 1.21299 79.3102 1.14961 79.028 1.15246C78.0587 1.15825 77.0835 1.1813 76.1027 1.2216C75.1217 1.26197 74.1466 1.28502 73.1773 1.29075C72.6637 1.26485 71.894 1.23604 70.868 1.20432C69.842 1.17265 69.1528 1.29366 68.8006 1.56734C68.7335 1.66341 68.672 1.77097 68.6164 1.89002C68.5607 2.00914 68.4993 2.1167 68.4321 2.21271L55.763 21.3894L55.2563 2.53539C55.2801 2.1772 55.267 1.86796 55.2158 1.60767C55.1649 1.34744 54.9326 1.21107 54.519 1.19855C53.4575 1.20627 52.3902 1.22548 51.3172 1.25618C50.2441 1.28694 49.1768 1.2831 48.1154 1.24465C47.5155 1.21683 46.9185 1.18034 46.3244 1.13517C45.7303 1.09006 45.1448 1.06509 44.568 1.06026C44.1745 1.04493 43.7983 1.09871 43.4393 1.2216C43.0804 1.34456 42.8884 1.62883 42.8634 2.07441C43.0093 2.80432 43.5929 3.16542 44.6141 3.15771C45.6353 3.15006 46.2188 3.51116 46.3647 4.24101C46.3481 4.7558 46.2428 5.28208 46.048 5.81986C45.8531 6.3577 45.667 6.86093 45.4894 7.32957C44.3674 10.4441 43.2483 13.5614 42.1321 16.6817C41.0159 19.8019 39.8622 22.9078 38.6711 25.9992C38.2229 27.3178 37.7833 28.2417 37.3524 28.7708C36.9214 29.3 36.0097 29.6822 34.617 29.9175C34.2331 29.9751 33.8953 30.0904 33.6035 30.2633C33.3117 30.4361 33.1582 30.7358 33.1428 31.1622C33.1562 31.5415 33.2906 31.7854 33.5459 31.894C33.8012 32.0025 34.0968 32.0505 34.4327 32.038C35.2409 32.0323 36.0548 32.0092 36.8744 31.9689C37.6941 31.9285 38.508 31.9055 39.3161 31.8997C40.0753 31.9093 40.8258 31.9477 41.5677 32.015C42.3096 32.0822 43.0487 32.1206 43.7848 32.1302C44.1284 32.1332 44.4547 32.0467 44.7638 31.8709C45.0728 31.6952 45.2379 31.4128 45.2591 31.0239C45.2079 30.3774 44.8495 30.0314 44.1841 29.9858C43.5186 29.9403 42.8532 29.8333 42.1878 29.6648C41.5223 29.4964 41.164 28.9045 41.1128 27.8892C41.1788 26.4357 41.6918 24.2771 42.6519 21.4133C43.6119 18.5496 44.6232 15.7729 45.6856 13.0833C46.748 10.3937 47.4658 8.58334 47.8389 7.65225L48.3457 29.5948C48.333 30.2719 48.4042 30.8078 48.5588 31.2025C48.7133 31.5972 49.1644 31.7989 49.9121 31.8075C50.6731 31.7778 51.2701 31.5146 51.703 31.0181C52.1359 30.5216 52.537 29.9703 52.9065 29.3643L67.6488 7.65225L62.7654 25.9992C62.6166 26.7886 62.3959 27.5838 62.1032 28.3848C61.8104 29.1857 61.2326 29.6813 60.3698 29.8714C59.8755 29.906 59.3208 29.9867 58.7055 30.1134C58.0903 30.2402 57.7544 30.6205 57.6978 31.2544C57.7085 31.5953 57.8254 31.8354 58.0491 31.9746C58.2727 32.1139 58.5395 32.1811 58.8495 32.1763C59.911 32.1609 60.9783 32.0995 62.0513 31.9919C63.1243 31.8844 64.1916 31.8229 65.2532 31.8075C66.3588 31.8229 67.4645 31.8844 68.5701 31.9919C69.6758 32.0995 70.7815 32.1609 71.8871 32.1763C72.2969 32.1878 72.6636 32.1187 72.987 31.9689C73.3105 31.8191 73.4813 31.5194 73.4996 31.07C73.4596 30.5157 73.1811 30.1952 72.6635 30.1087C72.1459 30.0222 71.6283 29.8999 71.1108 29.7417C70.5932 29.5835 70.3145 29.1196 70.2748 28.3502C70.2826 27.7922 70.3477 27.2256 70.4705 26.6503C70.5934 26.0751 70.7277 25.52 70.8736 24.9851L75.5727 6.13102C75.7368 5.30225 75.9499 4.65496 76.2119 4.18915C76.4739 3.7234 77.044 3.43337 77.9222 3.31905C78.3916 3.29219 78.8465 3.19616 79.2871 3.03094C79.7276 2.86579 79.9637 2.51621 79.9954 1.98222H79.9955Z" fill="white"/>
</svg>




