<svg width="328" height="35" viewBox="0 0 328 35" fill="none" xmlns="http://www.w3.org/2000/svg">
<path d="M208.305 30.7795C208.305 31.1429 207.897 31.47 207.394 31.47H189.97C189.463 31.47 189.055 31.1429 189.055 30.7795V21.5856C189.055 21.2222 189.463 20.9315 189.97 20.9315H207.394C207.897 20.9315 208.305 21.2222 208.305 21.5856V30.7795ZM207.549 18.1697H189.811C187.243 18.1697 185.149 19.696 185.149 21.5856V30.8158C185.149 32.6692 187.243 34.2318 189.811 34.2318H207.549C210.121 34.2318 212.211 32.6692 212.211 30.8158V21.5856C212.211 19.696 210.121 18.1697 207.549 18.1697Z" fill="white" fill-opacity="0.5"/>
<path d="M4.06997 4.36073C4.06997 4.36073 4.06997 16.062 4.06997 16.2437C3.85602 16.2437 0.218924 16.2437 0 16.2437C0 16.062 0 0.363394 0 0.181702C0.228871 0.181702 3.3734 0.181702 3.47788 0.181702L19.9618 11.883C19.9618 11.883 19.9618 0.363394 19.9618 0.181702C20.1857 0.181702 23.2207 0.181702 23.2207 0.181702C23.2207 0.181702 23.7979 0.181702 23.977 0.181702C23.977 0.363394 23.977 16.062 23.977 16.2437C23.7581 16.2437 20.9071 16.2437 20.7976 16.2437L4.06997 4.36073Z" fill="white"/>
<path d="M44.8741 4.36073C44.8741 4.36073 44.8741 16.062 44.8741 16.2437C44.6552 16.2437 41.0281 16.2437 40.8042 16.2437C40.8042 16.062 40.8042 0.363394 40.8042 0.181702C41.033 0.181702 44.1726 0.181702 44.2771 0.181702L60.7609 11.883C60.7609 11.883 60.7609 0.363394 60.7609 0.181702C60.9848 0.181702 64.0249 0.181702 64.0249 0.181702C64.0249 0.181702 64.607 0.181702 64.7812 0.181702C64.7812 0.363394 64.7812 16.062 64.7812 16.2437C64.5573 16.2437 61.7113 16.2437 61.6018 16.2437L44.8741 4.36073Z" fill="white"/>
<path d="M129.443 4.36073C129.443 4.36073 129.443 16.062 129.443 16.2437C129.219 16.2437 125.597 16.2437 125.373 16.2437C125.373 16.062 125.373 0.363394 125.373 0.181702C125.602 0.181702 128.746 0.181702 128.846 0.181702L145.33 11.883C145.33 11.883 145.33 0.363394 145.33 0.181702C145.554 0.181702 148.594 0.181702 148.594 0.181702C148.594 0.181702 149.176 0.181702 149.35 0.181702C149.35 0.363394 149.35 16.062 149.35 16.2437C149.126 16.2437 146.28 16.2437 146.176 16.2437L129.443 4.36073Z" fill="white"/>
<path d="M33.6693 0.181702C33.6693 0.181702 34.2464 0.181702 34.4206 0.181702C34.4206 0.363394 34.4206 16.062 34.4206 16.2437C34.2066 16.2437 30.5695 16.2437 30.3506 16.2437C30.3506 16.062 30.3506 0.363394 30.3506 0.181702C30.5745 0.181702 33.6693 0.181702 33.6693 0.181702Z" fill="white"/>
<path d="M92.4997 0.181702C92.4997 0.181702 93.0669 0.181702 93.2461 0.181702C93.2461 0.327051 93.2461 2.79814 93.2461 2.94348C93.0072 2.94348 83.4344 2.94348 83.4344 2.94348C83.4344 2.94348 83.4344 16.062 83.4344 16.2437C83.2154 16.2437 79.4241 16.2437 79.2052 16.2437C79.2052 16.062 79.2052 2.94348 79.2052 2.94348C79.2052 2.94348 69.6323 2.94348 69.3935 2.94348C69.3935 2.79814 69.3935 0.327051 69.3935 0.181702C69.6373 0.181702 92.4997 0.181702 92.4997 0.181702Z" fill="white"/>
<path d="M118.571 0.181702C118.571 0.181702 119.159 0.181702 119.333 0.181702C119.333 0.327051 119.333 2.79814 119.333 2.94348C119.099 2.94348 101.889 2.94348 101.889 2.94348V6.54109C101.889 6.54109 115.153 6.54109 115.382 6.54109C115.382 6.72279 115.382 9.12119 115.382 9.30291C115.153 9.30291 101.889 9.30291 101.889 9.30291V13.4819C101.889 13.4819 119.099 13.4819 119.333 13.4819C119.333 13.6273 119.333 16.062 119.333 16.2437C119.099 16.2437 98.0922 16.2437 97.8584 16.2437C97.8584 16.062 97.8584 0.363394 97.8584 0.181702C98.0922 0.181702 118.571 0.181702 118.571 0.181702Z" fill="white"/>
<path d="M171.979 13.4819H159.48V2.94348H171.979C175.889 2.94348 177.277 5.77796 177.277 8.2127C177.277 10.6111 175.889 13.4819 171.979 13.4819ZM178.656 2.54376C177.064 0.981158 174.71 0.181702 171.864 0.181702C171.864 0.181702 155.793 0.181702 155.554 0.181702C155.554 0.363394 155.554 16.062 155.554 16.2437C155.793 16.2437 171.864 16.2437 171.864 16.2437C174.71 16.2437 177.064 15.4079 178.656 13.8817C180.148 12.4644 180.939 10.5021 180.939 8.2127C180.939 5.92333 180.148 3.96101 178.656 2.54376Z" fill="white"/>
<path d="M208.305 12.8278C208.305 13.1549 207.897 13.4819 207.394 13.4819H189.97C189.463 13.4819 189.055 13.1549 189.055 12.8278V3.59759C189.055 3.23421 189.463 2.94348 189.97 2.94348H207.394C207.897 2.94348 208.305 3.23421 208.305 3.59759V12.8278ZM207.549 0.181702H189.811C187.243 0.181702 185.149 1.70796 185.149 3.59759V12.8278C185.149 14.7175 187.243 16.2437 189.811 16.2437H207.549C210.121 16.2437 212.211 14.7175 212.211 12.8278V3.59759C212.211 1.70796 210.121 0.181702 207.549 0.181702Z" fill="white"/>
<path d="M281.435 27.4363C285.654 28.6718 294.565 29.653 301.521 29.653C309.134 29.653 312.283 27.7633 312.283 25.3649C312.283 23.1846 309.357 21.949 300.954 19.696C289.714 16.6798 281.47 14.2814 281.47 8.8668C281.47 3.30689 291.391 0 306.511 0C314.631 0 317.418 0.363383 322.572 1.05384L322.612 6.35939C317.547 5.66894 313.059 4.46973 306.089 4.46973C298.615 4.46973 295.431 6.21402 295.431 7.99465C295.431 10.5748 300.337 11.8103 308.939 14.0633C320.916 17.1885 327.578 19.5869 327.578 24.8562C327.578 30.3071 319.234 34.2318 300.416 34.2318C292.689 34.2318 287.361 33.8684 281.435 33.1416V27.4363Z" fill="white"/>
<path d="M241.382 4.68774H232.426V29.4713H241.382C255.129 29.4713 263.802 25.1469 263.802 17.1158C263.802 9.08483 255.129 4.68774 241.382 4.68774ZM265.419 31.7606C260.99 33.2142 252.612 34.159 245.288 34.159H217.295V0.0726318H245.288C252.612 0.0726318 260.99 1.01746 265.429 2.47102C276.211 6.03229 279.723 11.7376 279.723 17.1158C279.723 22.4941 276.24 28.1994 265.419 31.7606Z" fill="white"/>
</svg>
